<?xml version="1.0" standalone="no"?><!-- Generator: Gravit.io --><svg xmlns="http://www.w3.org/2000/svg" xmlns:xlink="http://www.w3.org/1999/xlink" style="isolation:isolate" viewBox="0 0 500 500" width="500" height="500"><defs><clipPath id="_clipPath_p4KatTYBgeKI4qr7EJ6eCVaK7ZlbJmzR"><rect width="500" height="500"/></clipPath></defs><g clip-path="url(#_clipPath_p4KatTYBgeKI4qr7EJ6eCVaK7ZlbJmzR)"><path d=" M 166.982 175.113 L 216.278 175.113 L 200.8 285.434 C 196.578 314.984 180.818 329.337 158.022 329.337 C 141.136 329.337 131.849 324.272 121.436 308.793 L 102.627 322.472 L 90.479 331.307 C 102.58 349.038 118.622 366.205 155.489 366.205 C 201.644 366.205 231.757 333.277 237.949 289.093 L 258.212 145 L 134.322 145 L 166.982 175.113 Z  M 253.971 362.828 L 322.097 362.828 C 367.97 362.828 404.556 339.469 404.556 291.626 C 404.556 266.86 391.61 251.944 369.94 244.064 C 394.143 235.058 409.059 221.831 409.059 191.718 C 409.059 156.539 382.323 145 355.868 145 L 284.666 145 L 253.971 362.828 Z  M 325.192 260.668 C 346.581 260.668 366.563 269.955 366.563 293.596 C 366.563 320.05 349.114 329.619 325.755 329.619 L 296.486 329.619 L 306.055 260.668 L 325.192 260.668 Z  M 343.204 178.209 C 357.838 178.209 370.784 181.867 370.784 198.19 C 370.784 222.394 351.647 229.429 332.228 229.429 L 310.558 229.429 L 317.594 178.209 L 343.204 178.209 Z " fill-rule="evenodd" fill="rgb(0,0,0)"/></g></svg>